<svg width="32" height="32" viewBox="0 0 32 32" fill="none" xmlns="http://www.w3.org/2000/svg">
    <mask id="path-2-inside-1_570_79" fill="white">
        <path fill-rule="evenodd" clip-rule="evenodd" d="M14.661 5.99985C14.0196 5.99985 13.4997 6.51982 13.4997 7.16123C13.4997 8.19592 12.2485 8.71394 11.5169 7.98231C11.0633 7.52871 10.3278 7.52865 9.87422 7.98225L7.98107 9.8754C7.52759 10.3289 7.52774 11.0643 7.98122 11.5177C8.71256 12.2491 8.19494 13.4999 7.16067 13.4999C6.51952 13.4999 5.99976 14.0197 5.99976 14.6608V17.3392C5.99976 17.9803 6.51945 18.4999 7.16053 18.4999C8.19466 18.4999 8.71206 19.7508 7.98081 20.482C7.52734 20.9355 7.52714 21.6709 7.98061 22.1244L9.87365 24.0174C10.3273 24.4711 11.0629 24.471 11.5166 24.0173C12.2483 23.2856 13.4997 23.8037 13.4997 24.8385C13.4997 25.48 14.0197 26 14.6612 26H17.3387C17.9799 26 18.4997 25.4801 18.4997 24.839C18.4997 23.8048 19.7501 23.2866 20.4814 24.0179C20.9347 24.4712 21.6697 24.4712 22.1231 24.0179L24.0167 22.1242C24.4702 21.6708 24.4702 20.9356 24.0167 20.4821C23.2853 19.7507 23.8038 18.4999 24.8383 18.4999C25.4797 18.4999 25.9999 17.98 25.9999 17.3385V14.6615C25.9999 14.02 25.4796 13.4999 24.838 13.4999C23.8036 13.4999 23.2848 12.2492 24.0163 11.5177C24.4697 11.0642 24.4697 10.329 24.0163 9.87554L22.1225 7.98175C21.6692 7.52849 20.9343 7.52849 20.4811 7.98175C19.7499 8.71293 18.4997 8.19481 18.4997 7.16077C18.4997 6.51967 17.98 5.99985 17.3389 5.99985H14.661ZM16.0002 18C17.1048 18 18.0002 17.1045 18.0002 16C18.0002 14.8954 17.1048 14 16.0002 14C14.8957 14 14.0002 14.8954 14.0002 16C14.0002 17.1045 14.8957 18 16.0002 18Z"/>
    </mask>
    <path d="M11.5169 7.98231L10.1027 9.39652L10.1027 9.39652L11.5169 7.98231ZM7.98107 9.8754L6.56686 8.46119L6.56686 8.46119L7.98107 9.8754ZM7.98122 11.5177L9.39543 10.1035H9.39543L7.98122 11.5177ZM7.16067 13.4999L7.16068 11.4999H7.16067V13.4999ZM7.98081 20.482L6.5666 19.0678L6.5666 19.0678L7.98081 20.482ZM7.98061 22.1244L6.56639 23.5386H6.56639L7.98061 22.1244ZM9.87365 24.0174L8.45943 25.4316L8.45944 25.4316L9.87365 24.0174ZM11.5166 24.0173L12.9308 25.4316L12.9308 25.4316L11.5166 24.0173ZM20.4814 24.0179L19.0672 25.4321L19.0672 25.4321L20.4814 24.0179ZM22.1231 24.0179L23.5373 25.4321L23.5373 25.4321L22.1231 24.0179ZM24.0167 20.4821L22.6025 21.8963L22.6025 21.8964L24.0167 20.4821ZM24.838 13.4999V15.4999V13.4999ZM24.0163 11.5177L25.4305 12.9319L25.4305 12.9319L24.0163 11.5177ZM24.0163 9.87554L22.6021 11.2898L22.6021 11.2898L24.0163 9.87554ZM22.1225 7.98175L23.5367 6.56754L23.5367 6.56754L22.1225 7.98175ZM20.4811 7.98175L21.8953 9.39597L21.8953 9.39597L20.4811 7.98175ZM15.4997 7.16123C15.4997 7.62438 15.1242 7.99985 14.661 7.99985V3.99985C12.9151 3.99985 11.4997 5.41525 11.4997 7.16123H15.4997ZM10.1027 9.39652C12.0937 11.3875 15.4997 9.9785 15.4997 7.16123H11.4997C11.4997 6.41333 12.4034 6.04034 12.9311 6.56809L10.1027 9.39652ZM11.2884 9.39646C10.9608 9.72405 10.43 9.72383 10.1027 9.39652L12.9311 6.56809C11.6966 5.33359 9.69479 5.33325 8.46001 6.56803L11.2884 9.39646ZM9.39528 11.2896L11.2884 9.39646L8.46001 6.56803L6.56686 8.46119L9.39528 11.2896ZM9.39543 10.1035C9.72267 10.4308 9.72318 10.9617 9.39528 11.2896L6.56686 8.46119C5.332 9.69604 5.3328 11.6978 6.567 12.932L9.39543 10.1035ZM7.16067 15.4999C9.97858 15.4999 11.3854 12.0935 9.39543 10.1035L6.567 12.932C6.0397 12.4047 6.41131 11.4999 7.16068 11.4999L7.16067 15.4999ZM7.99976 14.6608C7.99976 15.1242 7.62409 15.4999 7.16067 15.4999V11.4999C5.41495 11.4999 3.99976 12.9151 3.99976 14.6608H7.99976ZM7.99976 17.3392V14.6608H3.99976V17.3392H7.99976ZM7.16053 16.4999C7.62402 16.4999 7.99976 16.8757 7.99976 17.3392H3.99976C3.99976 19.0848 5.41488 20.4999 7.16053 20.4999V16.4999ZM9.39503 21.8962C11.3844 19.9069 9.97907 16.4999 7.16053 16.4999V20.4999C6.41025 20.4999 6.03975 19.5946 6.5666 19.0678L9.39503 21.8962ZM9.39482 20.7102C9.72286 21.0382 9.72214 21.5691 9.39503 21.8962L6.5666 19.0678C5.33255 20.3018 5.33141 22.3036 6.56639 23.5386L9.39482 20.7102ZM11.2879 22.6032L9.39482 20.7102L6.56639 23.5386L8.45943 25.4316L11.2879 22.6032ZM10.1024 22.6031C10.4296 22.2759 10.9603 22.2756 11.2879 22.6032L8.45944 25.4316C9.69433 26.6665 11.6963 26.6661 12.9308 25.4316L10.1024 22.6031ZM15.4997 24.8385C15.4997 22.0208 12.0933 20.6122 10.1024 22.6031L12.9308 25.4316C12.4033 25.959 11.4997 25.5865 11.4997 24.8385H15.4997ZM14.6612 24C15.1243 24 15.4997 24.3754 15.4997 24.8385H11.4997C11.4997 26.5845 12.9151 28 14.6612 28V24ZM17.3387 24H14.6612V28H17.3387V24ZM16.4997 24.839C16.4997 24.3758 16.8752 24 17.3387 24V28C19.0847 28 20.4997 26.5845 20.4997 24.839H16.4997ZM21.8956 22.6037C19.9038 20.6119 16.4997 22.0237 16.4997 24.839H20.4997C20.4997 25.5858 19.5964 25.9613 19.0672 25.4321L21.8956 22.6037ZM20.7088 22.6037C21.0366 22.276 21.5679 22.276 21.8956 22.6037L19.0672 25.4321C20.3016 26.6665 22.3029 26.6665 23.5373 25.4321L20.7088 22.6037ZM22.6025 20.71L20.7088 22.6037L23.5373 25.4321L25.4309 23.5384L22.6025 20.71ZM22.6025 21.8964C22.2749 21.5688 22.2749 21.0376 22.6025 20.71L25.4309 23.5384C26.6654 22.3039 26.6655 20.3024 25.4309 19.0679L22.6025 21.8964ZM24.8383 16.4999C22.0238 16.4999 20.6098 19.9037 22.6025 21.8963L25.4309 19.0679C25.9607 19.5977 25.5838 20.4999 24.8383 20.4999V16.4999ZM23.9999 17.3385C23.9999 16.8749 24.3756 16.4999 24.8383 16.4999V20.4999C26.5838 20.4999 27.9999 19.085 27.9999 17.3385H23.9999ZM23.9999 14.6615V17.3385H27.9999V14.6615H23.9999ZM24.838 15.4999C24.3757 15.4999 23.9999 15.1252 23.9999 14.6615H27.9999C27.9999 12.9147 26.5835 11.4999 24.838 11.4999V15.4999ZM22.6021 10.1035C20.6088 12.0967 22.0243 15.4999 24.838 15.4999V11.4999C25.5828 11.4999 25.9608 12.4016 25.4305 12.9319L22.6021 10.1035ZM22.6021 11.2898C22.2745 10.9622 22.2745 10.431 22.6021 10.1035L25.4305 12.9319C26.665 11.6974 26.665 9.69584 25.4305 8.46132L22.6021 11.2898ZM20.7083 9.39597L22.6021 11.2898L25.4305 8.46133L23.5367 6.56754L20.7083 9.39597ZM21.8953 9.39597C21.5675 9.72375 21.0361 9.72375 20.7083 9.39597L23.5367 6.56754C22.3024 5.33323 20.3012 5.33323 19.0669 6.56754L21.8953 9.39597ZM16.4997 7.16077C16.4997 9.97562 19.9035 11.3878 21.8953 9.39597L19.0669 6.56754C19.5963 6.03808 20.4997 6.414 20.4997 7.16077H16.4997ZM17.3389 7.99985C16.8752 7.99985 16.4997 7.62399 16.4997 7.16077H20.4997C20.4997 5.41536 19.0848 3.99985 17.3389 3.99985V7.99985ZM14.661 7.99985H17.3389V3.99985H14.661V7.99985ZM16.0002 16V20C18.2094 20 20.0002 18.2091 20.0002 16H16.0002ZM16.0002 16H20.0002C20.0002 13.7908 18.2094 12 16.0002 12V16ZM16.0002 16V12C13.7911 12 12.0002 13.7908 12.0002 16H16.0002ZM16.0002 16H12.0002C12.0002 18.2091 13.7911 20 16.0002 20V16Z" fill="black" mask="url(#path-2-inside-1_570_79)"/>
</svg>
